PathFileType	4	(X/Y/Z)	Patient4_TMGait_0pt4_02_left_32.trc.trc
DataRate	CameraRate	NumFrames	NumMarkers	Units	OrigDataRate	OrigDataStartFrame	OrigNumFrames
74.866310160428	74.866310160428	4	33	mm	74.866310160428	89	       141
Frame#	Time	Sacral			L.Shoulder			Chest			R.Shoulder			Neck			R.ASIS			L.ASIS			R.Thigh.Superior			R.Thigh.Lateral			R.Thigh.Inferior			R.Patella			L.Thigh.Superior			L.Thigh.Lateral			L.Thigh.Inferior			L.Patella			L.Shank.Superior			L.Shank.Lateral			L.Shank.Inferior			R.Shank.Superior			R.Shank.Lateral			R.Shank.Inferior			R.Heel			R.Midfoot.Superior			R.Midfoot.Lateral			R.Toe			L.Heel			L.Midfoot.Lateral			L.Midfoot.Superior			L.Toe			L.Elbow			L.Wrist			R.Elbow			R.Wrist			
		X1	Y1	Z1	X2	Y2	Z2	X3	Y3	Z3	X4	Y4	Z4	X5	Y5	Z5	X6	Y6	Z6	X7	Y7	Z7	X8	Y8	Z8	X9	Y9	Z9	X10	Y10	Z10	X11	Y11	Z11	X12	Y12	Z12	X13	Y13	Z13	X14	Y14	Z14	X15	Y15	Z15	X16	Y16	Z16	X17	Y17	Z17	X18	Y18	Z18	X19	Y19	Z19	X20	Y20	Z20	X21	Y21	Z21	X22	Y22	Z22	X23	Y23	Z23	X24	Y24	Z24	X25	Y25	Z25	X26	Y26	Z26	X27	Y27	Z27	X28	Y28	Z28	X29	Y29	Z29	X30	Y30	Z30	X31	Y31	Z31	X32	Y32	Z32	X33	Y33	Z33	

89	44.015428571429	856.498291374589	996.220556218439	484.557758439746	1018.668064275948	1433.434936123113	302.595837944154	1115.137685129490	1375.047459785507	471.264549377406	1013.732100005577	1441.289335389544	638.692190858024	984.355830714617	1494.579919347019	457.573991916584	1086.481593943503	943.798796546722	607.372773755123	1075.907878798281	967.909123242335	333.097578474177	1144.783760682933	747.138760275784	576.288505775512	1072.699307137684	632.358458862675	638.070516160004	1155.692353723346	585.384433129138	559.525824324054	1164.047116850410	495.265615391547	567.711715920979	1106.018094400425	742.495278211711	346.477990288731	1007.859482342002	634.820793184225	276.991102662231	1090.623575234424	545.821757843040	329.123331875020	1082.090325113396	464.857427612735	324.270863189351	1023.029542542295	405.151659361657	318.143108909564	890.979906402250	339.721639474605	271.212371108045	901.264107020297	209.791388499339	326.431142817824	1133.312405291618	405.147472488814	576.117497305191	1061.190386694667	303.237731187357	640.680162296896	1101.732049092044	206.802887894784	578.831605394825	967.970748844948	42.683414201634	553.626699599344	1138.843133848412	98.001953041594	587.847921697998	1052.064923104691	37.269730987597	627.756563263840	1260.019470387892	46.074255140128	613.284271976125	728.548605604964	102.843594774618	367.538487319645	794.092126422892	71.950194487794	287.391995610032	892.402040980520	109.590226102682	307.139764231025	996.590750830761	34.897638986871	280.388991377849	1054.480829867896	1091.848749198735	163.836226167162	1252.009179420123	921.998570177927	127.879981001469	964.718029983908	1099.067923921070	764.802439975365	1101.216078144847	876.330841083391	763.218046515044	
90	44.028785714286	855.807915275003	996.576680917436	489.276425112398	1016.179178753198	1433.625637757885	306.050950798710	1114.567219184710	1375.358653585123	473.684376964217	1015.099020608313	1441.732178328024	642.160070450033	983.600427861503	1494.916085736141	461.196048165451	1086.989827015498	944.110369694603	610.169738832259	1074.004246292654	968.090495795671	336.041585336459	1143.266294668778	746.518925762807	580.450240990218	1069.242953358588	632.417284105604	641.376794403904	1152.352312693098	584.917807857641	563.410360264477	1159.522954508582	494.919143600341	571.144679020187	1110.043855694962	744.935297731888	348.923575603928	1016.155980195052	635.006399879191	278.506499117087	1101.958014876944	547.826951114230	330.064518599656	1094.596497628620	465.584083059208	324.325017705883	1033.394598380085	405.928169412594	318.635210677584	899.054400266145	345.098068896249	272.031468393809	905.354951991412	214.969805529312	326.960436444339	1128.638251455766	404.833382569894	578.967177566427	1055.946483005054	302.741610082006	642.649052151065	1096.680370611857	206.624743945754	580.420137960139	962.444830186907	42.605262787155	553.863848727151	1133.517570788197	97.893208510646	588.408119438064	1046.560529143329	37.128746497216	628.067032202717	1254.582560923242	45.841076930697	613.471747548883	728.736075701093	115.828201009863	368.270915831864	792.492575929924	81.561734627803	288.013450912677	892.670108883910	114.275997821214	307.307540558423	992.146307708229	34.349764701876	280.535275544396	1047.685016895603	1090.756970119552	169.000169966139	1234.683465282516	909.471839661662	132.189569943200	973.019904950902	1099.286019389110	770.663125563060	1121.251182052129	884.424654650999	768.375359713162	
91	44.042142857143	854.913942902998	996.959784061388	493.823911918658	1013.552110096391	1433.852118840373	309.440435048794	1113.965759488272	1375.567470324989	475.905630539117	1016.647268239283	1442.071526790552	645.539008478188	982.879778202191	1495.243220172351	464.793512922731	1087.281893040411	944.429291643988	612.641720335423	1071.755879473593	968.103168974134	338.678943326676	1141.398392299148	745.961391447072	584.237521304923	1065.662263367012	632.576766961572	644.558857763249	1148.670675751278	584.530904801774	567.008874076690	1154.651420820832	494.673263940392	574.458130055829	1114.044121849007	747.708801160990	351.032228698552	1024.705134310887	635.533350182792	279.724621307275	1113.592585915516	550.436749834895	330.619774686485	1107.600548316887	467.005224539303	324.164954121803	1044.475967280416	407.186720563444	318.963395257512	907.988339661138	350.843537220596	272.802358250380	910.346758382924	220.681002921876	327.655815214307	1123.696162795405	404.607470704976	581.745257059094	1050.486377364811	302.321418518273	644.581808364655	1091.496549402208	206.518663556464	582.009969566661	956.901251431317	42.533444953334	554.128780178577	1128.176530658219	97.812138557431	588.966703628308	1041.048760388502	36.989730378363	628.389909283344	1249.125733218589	45.669185203238	613.650750631111	730.131798875051	129.407862497448	369.452120644628	791.957849853377	91.997198220225	288.960588299614	893.871582100354	119.701477039793	307.782119725043	988.574430629360	34.057646524650	280.691952627345	1040.612453730721	1089.773222052809	174.072905116767	1216.501100196786	897.646811249283	136.945357887905	981.845976482386	1099.561355107942	776.379048300236	1141.357477552161	893.242241000311	773.204918838919	
92	44.055500000000	853.881307700134	997.363962641589	498.155425873962	1010.826248355608	1434.137771730789	312.736224348207	1113.322967643311	1375.700272918908	477.923506923987	1018.304047749047	1442.303461761023	648.797227955661	982.194062437662	1495.573855191398	468.336541364013	1087.360340014501	944.780056678529	614.795929469036	1069.272281899268	967.984996021820	341.007858572260	1139.214354252862	745.496516721660	587.548420104828	1062.034860539481	632.834059898643	647.558934601529	1144.696042898935	584.229189890827	570.231046255590	1149.501336159907	494.525791109685	577.560555109848	1117.886082704137	750.809222517399	352.806340479181	1033.211414698104	636.471711357512	280.659491921861	1125.177450596549	553.682900266289	330.765624896038	1120.758621820110	469.170633790276	323.728937197775	1055.984975004368	408.973309236210	319.074653851569	917.521594100415	356.813554120140	273.535429687228	916.204306378484	226.733461396614	328.480174166943	1118.543664744583	404.470613338024	584.378460342850	1044.865526811191	301.992046098498	646.422132225099	1086.206644454073	206.484426793436	583.553941131719	951.365506935437	42.473236871811	554.413869571433	1122.833079950144	97.763608694479	589.507637773946	1035.550289679227	36.861437957023	628.715795366674	1243.667241081947	45.570888252905	613.823948528194	732.855397300324	142.946669048200	371.078860733503	792.697562091623	102.758222561700	290.226030975752	896.151778956940	125.655154540110	308.523556140464	986.268248362945	34.140826700687	280.823003674239	1033.141232408966	1088.898445262943	179.050863194232	1197.545326308052	886.705035401179	142.159550971502	991.190696932918	1099.881951758774	781.870116437104	1161.437197591496	902.696521722646	777.659207106547	
